<?xml version="1.0" encoding="UTF-8"?>
<svg width="446px" height="219px" viewBox="0 0 446 219" version="1.1" xmlns="http://www.w3.org/2000/svg" xmlns:xlink="http://www.w3.org/1999/xlink">
    <!-- Generator: Sketch 41 (35326) - http://www.bohemiancoding.com/sketch -->
    <title>franz</title>
    <desc>Created with Sketch.</desc>
    <defs></defs>
    <g id="Page-1" stroke="none" stroke-width="1" fill="none" fill-rule="evenodd">
        <g id="franz">
            <path d="M68.96875,77 C68.96875,80.7500187 69.1093736,83.7265515 69.390625,85.9296875 L66.0859375,85.9296875 C65.5703099,80.5859108 64.6679752,76.3906402 63.3789062,73.34375 C62.0898373,70.2968598 60.2382933,68.1054754 57.8242188,66.7695312 C55.4101442,65.4335871 52.2109574,64.765625 48.2265625,64.765625 L37.6796875,64.765625 C34.2109202,64.765625 31.6914141,65.0351536 30.1210938,65.5742188 C28.5507734,66.1132839 27.4726592,67.2031168 26.8867188,68.84375 C26.3007783,70.4843832 26.0078125,73.109357 26.0078125,76.71875 L26.0078125,103.507812 L37.9609375,103.507812 C41.0078277,103.507812 43.3632729,102.722664 45.0273438,101.152344 C46.6914146,99.5820234 47.8046847,97.8476657 48.3671875,95.9492188 C48.9296903,94.0507718 49.4453102,91.6718893 49.9140625,88.8125 L53.21875,88.8125 C52.8906234,92.5625187 52.7265625,96.1249831 52.7265625,99.5 L52.796875,104.914062 C52.796875,108.757832 53.1015595,114.148403 53.7109375,121.085938 L50.3359375,121.085938 C49.9609356,118.132798 49.4335971,115.62501 48.7539062,113.5625 C48.0742154,111.49999 46.8789148,109.789069 45.1679688,108.429688 C43.4570227,107.070306 41.054703,106.390625 37.9609375,106.390625 L26.0078125,106.390625 L26.0078125,133.742188 C26.0078125,137.351581 26.3828087,139.976554 27.1328125,141.617188 C27.8828163,143.257821 29.2421777,144.382809 31.2109375,144.992188 C33.1796973,145.601566 36.2968537,145.976562 40.5625,146.117188 L40.5625,149 C35.5937252,148.718749 28.5391082,148.578125 19.3984375,148.578125 C11.1483963,148.578125 5.00783266,148.718749 0.9765625,149 L0.9765625,146.117188 C4.44532984,145.976562 6.9648359,145.601566 8.53515625,144.992188 C10.1054766,144.382809 11.1835908,143.257821 11.7695312,141.617188 C12.3554717,139.976554 12.6484375,137.351581 12.6484375,133.742188 L12.6484375,76.71875 C12.6484375,73.109357 12.3554717,70.4843832 11.7695312,68.84375 C11.1835908,67.2031168 10.1054766,66.078128 8.53515625,65.46875 C6.9648359,64.859372 4.44532984,64.4843757 0.9765625,64.34375 L0.9765625,61.4609375 C10.1172332,61.7421889 23.5467864,61.8828125 41.265625,61.8828125 C54.7188173,61.8828125 64.2812216,61.7421889 69.953125,61.4609375 C69.2968717,67.2265913 68.96875,72.406227 68.96875,77 Z M235.1875,146.117188 L235.1875,149 C231.24998,148.718749 226.117219,148.578125 219.789062,148.578125 C211.539021,148.578125 205.37502,148.718749 201.296875,149 L201.296875,146.117188 C204.906268,145.976562 207.531242,145.531254 209.171875,144.78125 C210.812508,144.031246 211.632812,142.718759 211.632812,140.84375 C211.632812,139.109366 210.976569,136.835952 209.664062,134.023438 L202.421875,117.640625 L167.265625,117.640625 L162.414062,128.398438 C160.820305,132.101581 160.023438,135.171863 160.023438,137.609375 C160.023438,142.6719 163.749963,145.507809 171.203125,146.117188 L171.203125,149 C168.343736,148.718749 163.984404,148.578125 158.125,148.578125 C152.265596,148.578125 148.093762,148.718749 145.609375,149 L145.609375,146.117188 C148.140638,145.460934 150.343741,143.996105 152.21875,141.722656 C154.093759,139.449207 155.828117,136.460956 157.421875,132.757812 L189.203125,60.7578125 L191.523438,60.7578125 L225.203125,136.90625 C227.828138,142.859405 231.15623,145.929687 235.1875,146.117188 Z M184.914062,78.125 L168.53125,114.757812 L201.15625,114.757812 L184.914062,78.125 Z M257.441406,133.847656 C258.871101,134.667973 259.99609,135.792962 260.816406,137.222656 C261.636723,138.652351 262.046875,140.187492 262.046875,141.828125 C262.046875,143.468758 261.636723,144.99218 260.816406,146.398438 C259.99609,147.804695 258.871101,148.929683 257.441406,149.773438 C256.011712,150.617192 254.476571,151.039062 252.835938,151.039062 C251.195304,151.039062 249.660163,150.617192 248.230469,149.773438 C246.800774,148.929683 245.675785,147.804695 244.855469,146.398438 C244.035152,144.99218 243.625,143.468758 243.625,141.828125 C243.625,140.187492 244.035152,138.652351 244.855469,137.222656 C245.675785,135.792962 246.800774,134.667973 248.230469,133.847656 C249.660163,133.02734 251.195304,132.617188 252.835938,132.617188 C254.476571,132.617188 256.011712,133.02734 257.441406,133.847656 Z M357.144531,65.7851562 C355.527336,66.6054729 354.414066,67.9531156 353.804688,69.828125 C353.195309,71.7031344 352.890625,74.4687317 352.890625,78.125 L352.890625,149.703125 L349.585938,149.703125 L292,69.96875 L292,132.265625 C292,135.968769 292.328122,138.757803 292.984375,140.632812 C293.640628,142.507822 294.871085,143.855465 296.675781,144.675781 C298.480478,145.496098 301.281231,145.976562 305.078125,146.117188 L305.078125,149 C301.656233,148.718749 296.757844,148.578125 290.382812,148.578125 C284.664034,148.578125 280.210953,148.718749 277.023438,149 L277.023438,146.117188 C280.351579,145.976562 282.824211,145.496098 284.441406,144.675781 C286.058602,143.855465 287.171872,142.507822 287.78125,140.632812 C288.390628,138.757803 288.695312,135.968769 288.695312,132.265625 L288.695312,76.71875 C288.695312,73.109357 288.402347,70.4843832 287.816406,68.84375 C287.230466,67.2031168 286.152352,66.078128 284.582031,65.46875 C283.011711,64.859372 280.492205,64.4843757 277.023438,64.34375 L277.023438,61.4609375 C280.164078,61.7421889 284.617159,61.8828125 290.382812,61.8828125 C295.679714,61.8828125 300.109357,61.7421889 303.671875,61.4609375 L349.585938,125.375 L349.585938,78.125 C349.585938,74.4218565 349.269534,71.6445405 348.636719,69.7929688 C348.003903,67.941397 346.773447,66.6054729 344.945312,65.7851562 C343.117178,64.9648396 340.304706,64.4843757 336.507812,64.34375 L336.507812,61.4609375 C339.929705,61.7421889 344.828093,61.8828125 351.203125,61.8828125 C356.968779,61.8828125 361.421859,61.7421889 364.5625,61.4609375 L364.5625,64.34375 C361.234358,64.4843757 358.761727,64.9648396 357.144531,65.7851562 Z M393.109375,145.695312 L424.75,145.695312 C428.125017,145.695312 430.914051,144.933601 433.117188,143.410156 C435.320324,141.886711 437.089837,139.367205 438.425781,135.851562 C439.761725,132.33592 440.687497,127.601592 441.203125,121.648438 L444.507812,121.648438 C444.226561,124.648453 444.085938,128.585913 444.085938,133.460938 C444.085938,138.05471 444.414059,143.234346 445.070312,149 C438.273404,148.718749 426.812581,148.578125 410.6875,148.578125 C395.312423,148.578125 384.10941,148.718749 377.078125,149 L377.078125,146.117188 L427.914062,64.765625 L397.679688,64.765625 C394.351546,64.765625 391.57423,65.5273361 389.347656,67.0507812 C387.121083,68.5742264 385.351569,71.0937324 384.039062,74.609375 C382.726556,78.1250176 381.812503,82.8593452 381.296875,88.8125 L377.992188,88.8125 C378.273439,85.7656098 378.414062,81.8281491 378.414062,77 C378.414062,72.406227 378.085941,67.2265913 377.429688,61.4609375 C384.226596,61.7421889 395.687419,61.8828125 411.8125,61.8828125 C426.484448,61.8828125 437.195279,61.7421889 443.945312,61.4609375 L443.945312,64.34375 L393.109375,145.695312 Z" id="f-a.nz" fill="#000000"></path>
            <polygon id="/" fill="#000000" points="70 212.0625 148.328125 0 157.75 0 79.421875 212.0625"></polygon>
            <path d="M249.026,212 L244.81,196.159 L247.972,196.159 L250.204,206.017 C250.348667,206.637003 250.452,207.174331 250.514,207.629 C250.576,207.236331 250.689666,206.699003 250.855,206.017 L253.49,196.159 L256.466,196.159 L259.101,206.017 C259.266334,206.699003 259.38,207.236331 259.442,207.629 C259.504,207.174331 259.607333,206.637003 259.752,206.017 L261.984,196.159 L265.146,196.159 L260.93,212 L258.078,212 L255.443,202.793 C255.194999,201.945662 255.029667,201.284336 254.947,200.809 C254.843666,201.470337 254.688668,202.141997 254.482,202.824 L251.878,212 L249.026,212 Z M271.532,212 L267.316,196.159 L270.478,196.159 L272.71,206.017 C272.854667,206.637003 272.958,207.174331 273.02,207.629 C273.082,207.236331 273.195666,206.699003 273.361,206.017 L275.996,196.159 L278.972,196.159 L281.607,206.017 C281.772334,206.699003 281.886,207.236331 281.948,207.629 C282.01,207.174331 282.113333,206.637003 282.258,206.017 L284.49,196.159 L287.652,196.159 L283.436,212 L280.584,212 L277.949,202.793 C277.700999,201.945662 277.535667,201.284336 277.453,200.809 C277.349666,201.470337 277.194668,202.141997 276.988,202.824 L274.384,212 L271.532,212 Z M294.038,212 L289.822,196.159 L292.984,196.159 L295.216,206.017 C295.360667,206.637003 295.464,207.174331 295.526,207.629 C295.588,207.236331 295.701666,206.699003 295.867,206.017 L298.502,196.159 L301.478,196.159 L304.113,206.017 C304.278334,206.699003 304.392,207.236331 304.454,207.629 C304.516,207.174331 304.619333,206.637003 304.764,206.017 L306.996,196.159 L310.158,196.159 L305.942,212 L303.09,212 L300.455,202.793 C300.206999,201.945662 300.041667,201.284336 299.959,200.809 C299.855666,201.470337 299.700668,202.141997 299.494,202.824 L296.89,212 L294.038,212 Z M325.255,212 L319.458,196.159 L322.682,196.159 L326.34,206.544 C326.567334,207.226003 326.712,207.690999 326.774,207.939 C326.836,207.690999 326.980666,207.226003 327.208,206.544 L330.835,196.159 L334.059,196.159 L328.262,212 L325.255,212 Z M338.802,193.679 C338.264664,193.679 337.804835,193.487835 337.4225,193.1055 C337.040165,192.723165 336.849,192.263336 336.849,191.726 C336.849,191.188664 337.040165,190.728835 337.4225,190.3465 C337.804835,189.964165 338.264664,189.773 338.802,189.773 C339.339336,189.773 339.799165,189.964165 340.1815,190.3465 C340.563835,190.728835 340.755,191.188664 340.755,191.726 C340.755,192.263336 340.563835,192.723165 340.1815,193.1055 C339.799165,193.487835 339.339336,193.679 338.802,193.679 Z M337.19,212 L337.19,196.159 L340.414,196.159 L340.414,212 L337.19,212 Z M349.993,212.372 C348.752994,212.372 347.585339,212.139502 346.49,211.6745 C345.394661,211.209498 344.568003,210.584337 344.01,209.799 L346.304,207.846 C347.440672,208.920672 348.64966,209.458 349.931,209.458 C351.791009,209.458 352.721,208.889672 352.721,207.753 C352.721,207.360331 352.545335,206.998668 352.194,206.668 C351.842665,206.337332 351.491335,206.094501 351.14,205.9395 C350.788665,205.784499 350.220337,205.552002 349.435,205.242 C347.698991,204.66333 346.422837,203.981337 345.6065,203.196 C344.790163,202.410663 344.382,201.398006 344.382,200.158 C344.382,198.793993 344.903828,197.724504 345.9475,196.9495 C346.991172,196.174496 348.308659,195.787 349.9,195.787 C352.276679,195.787 354.126327,196.582659 355.449,198.174 L353.124,200.034 C352.276662,199.145329 351.202007,198.701 349.9,198.701 C349.217997,198.701 348.675502,198.830165 348.2725,199.0885 C347.869498,199.346835 347.668,199.703331 347.668,200.158 C347.668,200.633336 347.910831,201.020832 348.3965,201.3205 C348.882169,201.620168 349.662328,201.976665 350.737,202.39 C352.535009,202.989336 353.852496,203.691996 354.6895,204.498 C355.526504,205.304004 355.945,206.388993 355.945,207.753 C355.945,209.241007 355.412839,210.382829 354.3485,211.1785 C353.284161,211.974171 351.832343,212.372 349.993,212.372 Z M361.463,193.679 C360.925664,193.679 360.465835,193.487835 360.0835,193.1055 C359.701165,192.723165 359.51,192.263336 359.51,191.726 C359.51,191.188664 359.701165,190.728835 360.0835,190.3465 C360.465835,189.964165 360.925664,189.773 361.463,189.773 C362.000336,189.773 362.460165,189.964165 362.8425,190.3465 C363.224835,190.728835 363.416,191.188664 363.416,191.726 C363.416,192.263336 363.224835,192.723165 362.8425,193.1055 C362.460165,193.487835 362.000336,193.679 361.463,193.679 Z M359.851,212 L359.851,196.159 L363.075,196.159 L363.075,212 L359.851,212 Z M374.204,212.372 C371.971989,212.372 370.210173,211.638341 368.9185,210.171 C367.626827,208.703659 366.981,206.678346 366.981,204.095 C366.981,201.511654 367.626827,199.481174 368.9185,198.0035 C370.210173,196.525826 371.971989,195.787 374.204,195.787 C376.436011,195.787 378.202993,196.525826 379.505,198.0035 C380.807007,199.481174 381.458,201.511654 381.458,204.095 C381.458,206.678346 380.807007,208.703659 379.505,210.171 C378.202993,211.638341 376.436011,212.372 374.204,212.372 Z M374.204,209.334 C375.444006,209.334 376.425663,208.869005 377.149,207.939 C377.872337,207.008995 378.234,205.727675 378.234,204.095 C378.234,202.462325 377.872337,201.175838 377.149,200.2355 C376.425663,199.295162 375.444006,198.825 374.204,198.825 C372.984661,198.825 372.013337,199.295162 371.29,200.2355 C370.566663,201.175838 370.205,202.462325 370.205,204.095 C370.205,205.707008 370.566663,206.983162 371.29,207.9235 C372.013337,208.863838 372.984661,209.334 374.204,209.334 Z M395.129,212 L395.129,202.545 C395.129,201.284327 394.83967,200.34917 394.261,199.7395 C393.68233,199.12983 392.917671,198.825 391.967,198.825 C389.693655,198.825 388.557,200.044321 388.557,202.483 L388.557,212 L385.333,212 L385.333,196.159 L388.557,196.159 L388.557,197.678 C389.549005,196.417327 390.912991,195.787 392.649,195.787 C396.451686,195.787 398.353,198.039644 398.353,202.545 L398.353,212 L395.129,212 Z M411.9,212 L411.9,210.636 C410.783994,211.793339 409.337342,212.372 407.56,212.372 C405.885992,212.372 404.527172,211.912171 403.4835,210.9925 C402.439828,210.072829 401.918,208.765675 401.918,207.071 C401.918,205.355658 402.506994,204.053671 403.685,203.165 C404.863006,202.276329 406.299325,201.832 407.994,201.832 C409.544008,201.832 410.845995,202.141997 411.9,202.762 L411.9,201.894 C411.9,200.715994 411.631336,199.879002 411.094,199.383 C410.556664,198.886998 409.699006,198.639 408.521,198.639 C406.784991,198.639 405.27634,199.114329 403.995,200.065 L403.034,197.43 C404.625341,196.334661 406.598988,195.787 408.955,195.787 C409.740337,195.787 410.442997,195.854166 411.063,195.9885 C411.683003,196.122834 412.31333,196.381165 412.954,196.7635 C413.59467,197.145835 414.095832,197.760662 414.4575,198.608 C414.819168,199.455338 415,200.498994 415,201.739 L415,212 L411.9,212 Z M408.149,209.52 C409.637007,209.52 410.887328,208.951672 411.9,207.815 L411.9,205.397 C410.928662,204.880331 409.80234,204.622 408.521,204.622 C407.487662,204.622 406.645503,204.823498 405.9945,205.2265 C405.343497,205.629502 405.018,206.244329 405.018,207.071 C405.018,207.83567 405.286664,208.434998 405.824,208.869 C406.361336,209.303002 407.136328,209.52 408.149,209.52 Z M419.34,212 L419.34,196.159 L422.564,196.159 L422.564,198.081 C423.26667,196.551659 424.444658,195.787 426.098,195.787 C427.131338,195.787 428.019996,196.10733 428.764,196.748 L428.299,199.724 C427.53433,199.207331 426.697338,198.949 425.788,198.949 C424.919996,198.949 424.16567,199.274497 423.525,199.9255 C422.88433,200.576503 422.564,201.635659 422.564,203.103 L422.564,212 L419.34,212 Z M433.569,218.014 L436.018,211.721 L430.097,196.159 L433.29,196.159 L437.196,206.513 C437.382001,206.988336 437.526666,207.453331 437.63,207.908 C437.733334,207.453331 437.877999,206.988336 438.064,206.513 L442.001,196.159 L445.225,196.159 L436.855,218.014 L433.569,218.014 Z" id="www-visionary" fill="#D0D0D0"></path>
        </g>
    </g>
</svg>