<?xml version="1.0" encoding="UTF-8" standalone="no"?>
<!-- Created with Inkscape (http://www.inkscape.org/) -->

<svg
   width="414.65567mm"
   height="124.07719mm"
   viewBox="0 0 414.65567 124.07719"
   version="1.1"
   id="svg1"
   xml:space="preserve"
   inkscape:version="1.3.2 (091e20ef0f, 2023-11-25)"
   xmlns:inkscape="http://www.inkscape.org/namespaces/inkscape"
   xmlns:sodipodi="http://sodipodi.sourceforge.net/DTD/sodipodi-0.dtd"
   xmlns="http://www.w3.org/2000/svg"
   xmlns:svg="http://www.w3.org/2000/svg"><sodipodi:namedview
     id="namedview1"
     pagecolor="#ffffff"
     bordercolor="#000000"
     borderopacity="0.25"
     inkscape:showpageshadow="2"
     inkscape:pageopacity="0.0"
     inkscape:pagecheckerboard="0"
     inkscape:deskcolor="#d1d1d1"
     inkscape:document-units="mm"
     inkscape:zoom="0.5946522"
     inkscape:cx="593.62431"
     inkscape:cy="154.71228"
     inkscape:window-width="1920"
     inkscape:window-height="1080"
     inkscape:window-x="0"
     inkscape:window-y="0"
     inkscape:window-maximized="0"
     inkscape:current-layer="g8" /><defs
     id="defs1" /><g
     inkscape:label="Layer 1"
     inkscape:groupmode="layer"
     id="layer1"
     transform="translate(50.134708,-105.49385)"><g
       id="g8"
       transform="translate(610.54697,183.88968)"><path
         style="fill:#9e9e9e;fill-opacity:1"
         d="m -533.00806,43.895417 c 0.49621,-0.982265 6.95699,-13.954527 14.35729,-28.827248 l 13.45508,-27.041311 7.62239,-0.01233 c 4.19231,-0.0068 7.58213,0.07696 7.53293,0.186105 -0.0492,0.10914 -6.51536,13.0815799 -14.36926,28.827643 l -14.27981,28.629207 -7.61041,0.01194 -7.61042,0.01194 z m -103.9238,-4.716856 c -6.11934,-0.951387 -11.43207,-3.156495 -15.68188,-6.508941 -1.62729,-1.283684 -4.00888,-3.729232 -4.78454,-4.913041 -0.37598,-0.573819 -0.36851,-0.651556 0.0939,-0.97803 0.27632,-0.195065 2.28834,-1.906578 4.47115,-3.803363 l 3.96875,-3.4487 1.68135,1.83904 c 4.22429,4.620502 9.0615,6.670493 15.78115,6.687993 5.39541,0.01405 8.95068,-1.24117 11.90625,-4.203599 3.00433,-3.011306 4.04905,-6.038962 4.28981,-12.432105 l 0.14946,-3.96875 -1.70919,1.7438762 c -3.02811,3.0895488 -6.03492,4.8114558 -10.24509,5.8670468 -1.79945,0.451167 -3.07594,0.571447 -6.11103,0.575826 -12.84292,0.01853 -22.27102,-6.687337 -26.16715,-18.6117384 -1.85506,-5.677577 -1.85729,-13.9997706 -0.005,-20.0142996 3.15342,-10.241364 11.4293,-17.384716 21.9177,-18.918323 3.39108,-0.495841 8.59026,-0.200083 11.47702,0.652875 3.88744,1.148632 7.68202,3.352396 9.79006,5.685741 0.5379,0.595397 1.01246,1.08254 1.05458,1.08254 0.0421,0 0.0283,-1.547813 -0.0306,-3.439583 l -0.10717,-3.439583 h 6.77816 6.77816 l -9e-4,26.524477 c -5.7e-4,16.7460093 -0.1051,27.636864 -0.28355,29.541869 -1.48934,15.899748 -12.11259,24.983315 -29.08429,24.868963 -1.96454,-0.01324 -4.6316,-0.188823 -5.92681,-0.390191 z m 11.30521,-35.9374775 c 5.31155,-1.7872499 8.8215,-5.7775075 10.07584,-11.4546645 0.6045,-2.735922 0.55727,-7.399159 -0.101,-9.972969 -1.87981,-7.34999 -7.71459,-11.793736 -15.48554,-11.793736 -7.46205,0 -13.00881,4.132556 -15.2581,11.367894 -0.52734,1.696312 -0.61447,2.522092 -0.6002,5.688541 0.0148,3.2776586 0.0978,3.9478859 0.72084,5.8208334 1.88478,5.6657465 6.09371,9.6141288 11.56559,10.8496342 2.5877,0.5842809 6.48909,0.3671306 9.08257,-0.5055331 z m 57.72472,13.9751265 c -10.13567,-1.566626 -18.67094,-8.2407322 -22.47265,-17.57235291 -3.03066,-7.43899019 -2.92452,-16.76487209 0.27796,-24.42456909 1.32068,-3.158797 4.84625,-8.383763 5.65698,-8.383763 0.20693,0 4.24714,4.079575 7.78024,7.856038 l 1.53276,1.63833 -0.97774,1.584063 c -2.82388,4.575044 -3.48,10.897361 -1.68982,16.2829191 1.68379,5.06547523 5.91204,9.0973383 10.89116,10.3853007 2.18613,0.5654922 6.19692,0.5630882 8.36394,-0.00501 5.00871,-1.3130718 8.92456,-5.17707405 10.76438,-10.6218469 0.96216,-2.8474068 1.19277,-7.5308269 0.52265,-10.6143769 -1.03787,-4.775753 -4.08095,-9.103168 -7.75367,-11.02613 -2.71723,-1.422684 -4.53989,-1.861136 -7.73682,-1.861136 -3.14815,0 -5.13376,0.46204 -7.38033,1.717365 l -1.42721,0.797486 -3.02321,-3.000354 c -1.66276,-1.650194 -3.75208,-3.816013 -4.64292,-4.81293 l -1.61973,-1.812577 0.64618,-0.511835 c 0.3554,-0.28151 1.95587,-1.158448 3.5566,-1.948752 8.53907,-4.215869 19.34681,-4.276222 27.78417,-0.155154 3.30679,1.615142 5.29618,3.097282 8.02088,5.975742 4.1645,4.3995 6.63164,9.573206 7.58671,15.909657 1.72425,11.4396157 -2.50169,22.5082891 -11.06012,28.968876 -6.4962,4.903852 -15.07641,6.95253 -23.60039,5.635013 z m 163.09134,0.03193 c -4.94413,-0.810238 -8.39142,-2.475497 -11.51369,-5.56184 -1.57563,-1.557496 -2.36805,-2.5915636 -2.98428,-3.8943591 -1.28556,-2.717827 -1.88192,-5.4256254 -1.88192,-8.54496079 0,-7.07110921 3.18702,-12.45504611 9.07983,-15.33887411 4.75009,-2.324598 8.24828,-2.784533 21.18118,-2.784862 l 8.69746,-2.21e-4 -0.1163,-2.315104 c -0.33991,-6.765731 -5.128,-9.655384 -15.29426,-9.230206 -5.90714,0.24705 -11.51548,1.553547 -15.70333,3.658184 -0.85147,0.427913 -1.57212,0.740462 -1.60145,0.694554 -0.0293,-0.04591 -0.78239,-2.524251 -1.67347,-5.507428 l -1.62014,-5.423958 1.5018,-0.717786 c 2.12507,-1.015674 7.63935,-2.80008 10.47557,-3.389863 7.98358,-1.660159 17.32886,-1.544371 23.31646,0.288891 7.87059,2.40979 12.99919,8.755933 14.09792,17.444799 0.16407,1.297466 0.34704,10.168737 0.43248,20.9682284 l 0.14809,18.7192696 h -6.74946 -6.74947 v -2.513541 c 0,-1.382448 -0.0654,-2.513542 -0.1454,-2.513542 -0.08,0 -0.58129,0.423326 -1.11404,0.940724 -2.02396,1.965647 -5.3929,3.578947 -9.70025,4.645212 -2.84128,0.703345 -8.93151,0.8932 -12.08333,0.376683 z m 12.4047,-10.6069296 c 3.94666,-0.7953394 7.37195,-2.9269682 8.90393,-5.5411031 1.08166,-1.84571464 1.46981,-3.8519999 1.46981,-7.5972572 v -3.3839945 l -8.53281,0.00391 c -6.61129,0.00303 -8.90816,0.092401 -10.19958,0.3968642 -3.0733,0.724556 -4.95779,2.064472 -6.05706,4.3067141 -0.62595,1.2767633 -0.73944,1.8374215 -0.73417,3.6268855 0.0125,4.2603231 2.34476,7.1404569 6.6191,8.1741463 2.11312,0.5110276 6.03205,0.5173828 8.53078,0.013835 z m -67.14936,-19.1020424 1.9e-4,-28.905727 h 6.74687 6.74688 v 3.285651 c 0,1.807109 0.0709,3.470333 0.15748,3.696053 0.11776,0.306868 0.42209,0.07565 1.20638,-0.916543 2.077,-2.627604 6.5026,-5.259114 10.67468,-6.347273 1.3255,-0.345717 3.37758,-0.608171 5.4901,-0.702165 l 3.37344,-0.150097 -0.002,6.851041 -0.002,6.85104 -3.10731,0.01729 c -3.78502,0.02107 -6.5423,0.589666 -9.47744,1.954418 -3.99812,1.859008 -7.09551,5.536666 -7.78466,9.243046 -0.15856,0.852771 -0.26499,7.942633 -0.26499,17.65236618 V 16.295465 l -6.87935,0.07472 -6.87935,0.07472 z m 164.48282,28.861631 c -0.097,-0.09701 -0.17639,-2.169726 -0.17639,-4.606027 V 7.3651361 l 1.93636,-2.3392854 c 2.40285,-2.9028353 12.7225,-15.5607867 21.42252,-26.2765877 l 6.55784,-8.077279 -14.56149,-0.06839 -14.56148,-0.06839 v -5.950885 -5.950884 h 23.54791 23.54792 v 4.648899 4.6489 l -5.11006,6.265162 c -2.81053,3.445839 -7.05994,8.705944 -9.44313,11.68912 -4.12393,5.1621556 -7.07182,8.794541 -12.66874,15.6104163 l -2.49854,3.0427082 15.52169,0.068261 15.5217,0.068261 v 5.9510095 5.95101 h -24.42986 c -13.43643,0 -24.50924,-0.07938 -24.60625,-0.176389 z m -61.36128,-8.0918402 c -0.14397,-17.4192955 -0.0545,-46.7634998 0.14253,-46.7642778 0.29991,-0.0012 1.50307,1.191748 8.59824,8.525179 l 6.32909,6.541629 -0.55655,1.528163 c -0.54265,1.490003 -0.55841,1.985683 -0.63132,19.8505573 l -0.0748,18.3223947 h -6.87054 -6.87054 z m 39.42038,-9.7895828 c -0.0842,-16.113848 -0.13731,-17.941702 -0.56306,-19.366322 -1.10397,-3.694033 -2.90283,-5.994403 -5.80169,-7.419178 -4.07014,-2.000447 -9.90434,-1.752034 -13.67491,0.58226 l -1.19062,0.737095 -6.99306,-7.077603 -6.99306,-7.077604 h 4.67795 4.67796 v 2.544329 2.544329 l 1.00253,-0.905722 c 3.8209,-3.45196 8.34875,-5.162035 14.37873,-5.43055 8.49255,-0.378173 15.18668,2.489542 19.51182,8.358729 1.53448,2.082268 2.40943,3.782551 3.14829,6.118051 1.51803,4.798413 1.6415,6.800498 1.64396,26.6567693 l 0.002,17.5286447 h -6.86704 -6.86703 z m -205.49837,-23.018749 -0.0142,-36.710935 h 18.52083 c 10.18646,0 18.52083,0.06214 18.52083,0.138089 0,0.07595 -1.3758,2.869135 -3.05733,6.207082 l -3.05732,6.068993 -8.29806,0.07677 c -4.56393,0.04223 -8.35195,0.136304 -8.41782,0.209064 -0.0659,0.07276 -0.20403,4.448307 -0.30703,9.723437 l -0.18727,9.591145 h 3.61467 c 1.98807,0 3.57499,0.0893 3.52648,0.198438 -0.0485,0.10914 -3.38083,6.687343 -7.40515,14.618228 -4.02433,7.9308852 -8.69115,17.1582284 -10.37071,20.5052074 l -3.05375,6.0854166 z m 20.02189,7.578616 c -0.0904,-0.09041 1.19904,-2.88927 2.86545,-6.21968 l 3.02984,-6.05529 h 13.7621 13.76211 l -0.071,6.151562 -0.071,6.151563 -16.55654,0.06812 c -9.10609,0.03746 -16.63051,-0.0059 -16.72092,-0.09627 z m 8.75344,-17.167692 c -0.10029,-0.104707 1.40806,-3.362694 3.35188,-7.239972 1.94383,-3.877278 4.88339,-9.843054 6.53235,-13.257279 1.64897,-3.414226 3.23624,-6.583864 3.52729,-7.043642 0.29104,-0.459777 2.3151,-4.41657 4.49791,-8.792873 l 3.96875,-7.956915 7.34219,-0.01455 c 6.70263,-0.01328 7.34219,0.02414 7.34219,0.42953 0,0.49607 -7.79077,16.118234 -8.36552,16.774672 -0.28871,0.329744 -0.36573,1.708772 -0.36573,6.548437 v 6.130729 h -3.04271 c -2.26201,0 -3.04067,0.08486 -3.03478,0.330729 0.004,0.181901 -1.51369,3.395841 -3.37344,7.142089 l -3.38136,6.811359 -5.29167,0.0032 c -2.91042,0.0018 -6.24417,0.0756 -7.40833,0.16403 -1.16417,0.08843 -2.19873,0.07511 -2.29902,-0.02959 z"
         id="path11" /><path
         style="fill:#7a7a7a;fill-opacity:1"
         d="m -634.84151,39.421447 c -0.43656,-0.05236 -1.92485,-0.287503 -3.30729,-0.522534 -7.10239,-1.207477 -13.8221,-4.807311 -17.90419,-9.591492 l -1.71413,-2.008947 0.76463,-0.664288 c 0.42055,-0.365359 2.43074,-2.105503 4.4671,-3.866987 l 3.70248,-3.202699 1.90242,2.056293 c 2.28689,2.47186 4.34305,3.89413 7.26353,5.024248 7.70251,2.980591 16.43226,1.579171 20.80574,-3.340023 2.45779,-2.764469 3.45619,-5.970153 3.66088,-11.754441 l 0.14511,-4.1005702 -2.38036,2.2652219 c -5.64992,5.3766393 -13.15338,7.1713203 -22.16842,5.3022573 -5.06627,-1.050375 -8.78094,-2.959052 -12.35847,-6.3500437 -3.84803,-3.6473794 -6.32589,-7.92003454 -7.81558,-13.4766445 -0.62907,-2.3464668 -0.68717,-3.0077069 -0.70141,-7.9823568 -0.0135,-4.706936 0.0618,-5.751502 0.56912,-7.901686 1.1842,-5.01859 3.63495,-9.605962 7.04357,-13.184311 3.62404,-3.804502 7.40498,-6.038736 12.56985,-7.427788 2.25247,-0.605783 3.062,-0.685943 7.04292,-0.6974 3.86636,-0.01113 4.80762,0.07087 6.70365,0.583963 4.17106,1.128757 7.51187,2.993298 10.16353,5.672374 l 1.52136,1.537082 v -3.578616 -3.578616 h 6.62887 6.62888 l -0.10115,28.111977 c -0.0747,20.7520505 -0.18716,28.623155 -0.42968,30.064471 -0.72654,4.318025 -2.38509,8.799264 -4.29545,11.605851 -1.26816,1.863112 -4.37803,5.006057 -6.15026,6.215678 -3.20253,2.185853 -7.77072,3.846238 -12.59996,4.579663 -2.25707,0.342786 -7.58556,0.458855 -9.65729,0.210364 z m 7.67291,-35.6777116 c 7.43824,-1.5616786 12.03405,-7.8459901 12.09251,-16.5352944 0.0312,-4.64455 -0.79241,-7.649549 -2.97946,-10.870113 -3.486,-5.133366 -10.76794,-7.540793 -17.55711,-5.804418 -2.83325,0.724624 -4.47576,1.672805 -6.64797,3.837716 -3.28507,3.274014 -4.88813,7.353145 -4.87941,12.416118 0.006,3.3951564 0.52232,5.8218689 1.80702,8.4904883 1.64562,3.4183242 3.86391,5.68226953 7.12627,7.2729321 3.1634,1.5424127 7.26249,1.9852818 11.03815,1.192571 z m 61.25104,13.7079286 c -13.67765,-1.464772 -23.92418,-10.9086344 -26.21108,-24.1578066 -0.44125,-2.5563996 -0.44446,-8.2706484 -0.006,-10.9729104 0.68762,-4.239405 2.53211,-8.759017 5.08744,-12.465855 1.75067,-2.539588 2.46876,-3.20072 2.99875,-2.760873 0.22291,0.184999 2.31086,2.331997 4.6399,4.771107 l 4.23461,4.434745 -1.05034,1.728898 c -4.17902,6.878797 -3.23698,16.8596708 2.11487,22.40711036 2.43389,2.52283664 5.25726,3.93892524 9.01614,4.52213574 8.22281,1.2758129 15.56333,-3.8264515 17.69861,-12.3019936 0.71278,-2.8292015 0.72014,-7.2548085 0.0167,-10.0054105 -0.60983,-2.384408 -1.96151,-5.159102 -3.39935,-6.978106 -1.28127,-1.620931 -4.15028,-3.619112 -6.25406,-4.355775 -4.51014,-1.579275 -10.04677,-1.164085 -13.49374,1.011891 l -1.0735,0.677669 -4.56528,-4.739128 c -2.5109,-2.60652 -4.56637,-4.823173 -4.56771,-4.925895 -0.001,-0.102721 0.83135,-0.673717 1.85041,-1.268878 8.88015,-5.186288 20.22229,-5.79366 29.54693,-1.58224 7.92085,3.57741 14.11333,11.649621 15.80571,20.603544 1.61138,8.525414 -0.009,17.1227805 -4.49915,23.8775611 -1.61517,2.42955 -5.04393,5.8512969 -7.50333,7.4879699 -5.82768,3.878191 -13.42247,5.738017 -20.38633,4.99224 z m 162.20496,-0.112928 c -10.82351,-1.254054 -17.46869,-8.136256 -17.46869,-18.09175389 0,-3.17238011 0.54929,-5.62743831 1.84909,-8.26449581 1.84398,-3.7410993 5.08535,-6.4696533 9.57143,-8.0571503 3.98102,-1.408772 5.76346,-1.588377 17.20532,-1.733671 l 10.51107,-0.133474 -0.16311,-2.018104 c -0.43238,-5.349794 -3.09215,-8.106512 -8.88554,-9.209428 -1.69026,-0.321784 -3.14081,-0.380072 -6.41724,-0.257869 -6.11918,0.228232 -11.52598,1.43491 -15.58896,3.479114 -0.95789,0.481942 -1.78521,0.798461 -1.8385,0.703377 -0.36289,-0.647481 -3.10242,-10.442599 -2.99726,-10.716627 0.16246,-0.423359 4.78333,-2.274412 7.9893,-3.200393 4.63313,-1.338189 7.82349,-1.785075 13.75833,-1.927186 4.35684,-0.104326 6.20433,-0.03793 8.55846,0.307558 8.67874,1.27369 14.23772,5.270358 17.17505,12.348142 1.76753,4.259027 1.73895,3.858604 1.84459,25.8359364 l 0.0957,19.9098946 h -6.62701 -6.62701 v -2.513541 c 0,-1.382448 -0.0718,-2.513542 -0.15956,-2.513542 -0.0878,0 -0.76423,0.543647 -1.50326,1.208104 -1.60069,1.439152 -5.37091,3.323625 -8.12676,4.062002 -3.79069,1.015644 -7.87658,1.278874 -12.15545,0.783107 z m 11.99298,-10.8079952 c 4.41277,-1.1285944 7.13199,-3.1145224 8.70528,-6.35771707 0.80828,-1.66618893 0.83745,-1.84967503 0.93596,-5.88697883 l 0.10167,-4.1671873 h -8.58255 c -9.46841,0 -10.71239,0.1374064 -13.08167,1.4449603 -3.35317,1.8505366 -4.81431,5.6944131 -3.65214,9.6078412 0.79533,2.6781684 2.96363,4.582253 6.21198,5.4550087 2.19304,0.58922 6.86996,0.5412957 9.36147,-0.095927 z m 96.64718,9.8700552 c -0.097,-0.09701 -0.17638,-2.13767 -0.17638,-4.534798 V 7.5075851 l 1.51209,-1.8813433 c 1.22609,-1.5254929 16.4133,-20.1679818 20.17724,-24.7678008 0.53584,-0.654843 2.61939,-3.214687 4.63011,-5.688541 l 3.65585,-4.497916 -14.52462,-0.132292 -14.52463,-0.132292 -0.0712,-5.888409 -0.0712,-5.88841 23.41987,0.06758 23.41987,0.06758 0.095,4.600162 0.095,4.600162 -2.41297,2.940463 c -3.1218,3.804233 -8.98723,11.056354 -14.46876,17.88942 -2.39313,2.9831769 -6.22409,7.7162036 -8.51325,10.51783702 -2.28916,2.80163348 -4.16211,5.15311768 -4.16211,5.22552058 0,0.072403 6.96515,0.1316416 15.47812,0.1316416 h 15.47813 v 5.8208328 5.820833 l -6.81302,-6.85e-4 c -3.74717,-3.77e-4 -14.74061,0.05915 -24.42987,0.132286 -9.68926,0.07314 -17.69622,0.0536 -17.79323,-0.04341 z m -164.48262,-28.927772 v -28.839581 h 6.74687 6.74688 v 3.704166 c 0,2.037292 0.0989,3.704167 0.21973,3.704167 0.12085,0 0.59837,-0.527253 1.06116,-1.171672 1.09445,-1.523991 3.86538,-3.611188 6.52431,-4.91442 2.9677,-1.454567 6.16913,-2.168477 9.92188,-2.212549 l 3.04271,-0.03573 0.0707,6.680729 0.0707,6.680729 h -2.48342 c -8.53329,0 -15.01823,3.532204 -17.42949,9.493459 -0.60099,1.485789 -0.60143,1.497807 -0.67669,18.61851828 l -0.0753,17.13176972 h -6.87 -6.87 z m 103.2007,1.389063 0.0132,-27.45052 7.51877,7.636628 c 7.44473,7.56143 7.51526,7.643499 7.16272,8.334375 -0.871,1.70686 -0.94958,3.462555 -0.94958,21.2159769 V 16.312606 h -6.87916 -6.87917 z m 39.35351,9.5249993 -0.0803,-17.9255203 -0.72139,-2.116666 c -1.25951,-3.695562 -3.77394,-6.256521 -7.21191,-7.345353 -3.84409,-1.217455 -9.33298,-0.610255 -12.13282,1.342176 l -1.02033,0.71151 -6.85103,-6.895325 c -3.76806,-3.792429 -6.85102,-6.97735 -6.85102,-7.077603 0,-0.100254 1.95342,-0.182279 4.34093,-0.182279 h 4.34093 l 0.18703,2.49458 0.18703,2.494581 1.73403,-1.43031 c 2.18377,-1.801276 5.32272,-3.343216 8.39234,-4.12255 3.02438,-0.767849 9.20749,-0.854951 12.20657,-0.171956 8.46579,1.927957 14.2276,7.657954 16.2308,16.141199 0.90721,3.841915 1.06322,7.510865 1.06345,25.00955794 l 2.2e-4,16.99947806 h -6.86712 -6.86711 z m -205.45983,-23.0187483 0.0671,-36.446353 18.45468,-0.06794 c 10.15008,-0.03737 18.45469,-0.0027 18.45469,0.07699 0,0.07972 -1.38295,2.848729 -3.07322,6.153361 l -3.07322,6.008421 -8.5023,0.132292 -8.5023,0.132291 -0.0747,9.723437 -0.0747,9.723437 h 3.60221 3.6022 l -4.44564,8.665104 c -2.4451,4.765807 -7.09117,13.9931503 -10.3246,20.50520724 -3.23342,6.51205696 -5.94607,11.84010376 -6.0281,11.84010376 -0.082,0 -0.11896,-16.4008587 -0.0821,-36.446351 z m 23.9642,7.674775 -4.1487,-0.08125 3.03289,-6.081169 3.0329,-6.081168 13.68352,0.06852 13.68352,0.06852 v 6.085416 6.085417 l -12.56771,0.0085 c -6.91224,0.0047 -14.43463,-0.02808 -16.71642,-0.07277 z m 11.73667,-31.721376 c 0.0639,-0.125906 1.47207,-2.997122 3.12919,-6.380481 l 3.01295,-6.151562 h 5.33201 c 2.9326,0 6.2451,-0.07719 7.3611,-0.171521 l 2.02908,-0.171521 -0.0709,6.43447 -0.0709,6.434471 -10.41935,0.117531 c -5.82155,0.06567 -10.36806,0.01651 -10.30311,-0.111387 z"
         id="path10" /><path
         style="fill:#575757;fill-opacity:1"
         d="m -634.44464,39.417551 c -9.56025,-0.967353 -17.55385,-4.923051 -22.40743,-11.088491 l -0.8439,-1.071988 4.1152,-3.554004 c 2.26336,-1.954702 4.25205,-3.654685 4.41931,-3.777739 0.19893,-0.14636 1.17216,0.642348 2.81411,2.280558 2.16044,2.155525 2.86006,2.672633 5.02355,3.71302 3.36118,1.616342 5.06732,2.035046 8.99583,2.207659 2.47903,0.108924 3.80191,0.03988 5.28236,-0.275688 4.36982,-0.931473 8.08275,-3.55281 9.87336,-6.97062 1.45412,-2.775527 1.80246,-4.425442 1.96724,-9.317791 l 0.14662,-4.3532641 -1.55427,1.6787991 c -4.25004,4.590552 -9.48608,6.699185 -16.64135,6.701735 -8.02252,0.0029 -14.75713,-2.696679 -19.6945,-7.8944395 -5.08724,-5.3555473 -7.6859,-12.3756794 -7.68881,-20.7709615 -0.005,-14.431521 8.5167,-25.681322 21.55338,-28.453336 8.41059,-1.788358 17.281,0.450919 22.52721,5.686844 l 1.69126,1.687944 v -3.607738 -3.607738 l 6.54844,0.06771 6.54843,0.06771 -0.003,27.516665 c -0.003,28.813906 -0.0309,29.608743 -1.18636,34.12666 -2.73341,10.687525 -11.02296,17.423172 -23.27756,18.914108 -2.11098,0.256828 -6.1452,0.303212 -8.20903,0.09438 z m 9.05975,-36.1360535 c 5.21016,-1.9276247 8.45507,-5.598818 9.8803,-11.178265 0.63842,-2.4992545 0.65187,-7.7966025 0.0259,-10.1864575 -1.55916,-5.952366 -5.74466,-10.172387 -11.44239,-11.536773 -2.34318,-0.561102 -6.08387,-0.562428 -8.4196,-0.003 -5.56126,1.332004 -9.8681,5.874205 -11.43008,12.054699 -0.68478,2.709539 -0.40758,8.2260786 0.5505,10.9555971 1.81943,5.1834382 5.68692,8.8598578 10.76775,10.2357668 2.78537,0.7542907 7.54181,0.5929113 10.06765,-0.3415814 z m 58.80678,14.0438115 c -12.01757,-1.368889 -22.00094,-9.9101508 -24.88852,-21.2933412 -1.16176,-4.5797653 -1.27784,-11.1710168 -0.27304,-15.5024668 0.60332,-2.600746 1.92416,-6.016211 3.17638,-8.213569 1.15964,-2.034904 3.7392,-5.480407 4.10305,-5.480407 0.10844,0 2.24388,2.135132 4.74543,4.744738 l 4.54826,4.744737 -1.06688,1.650662 c -4.3087,6.666401 -3.2188,17.1476066 2.36362,22.73002114 4.04228,4.04228206 10.39402,5.50147516 16.17502,3.71590706 4.80595,-1.4844068 8.84557,-6.0090996 10.33622,-11.577397 0.72373,-2.7034281 0.77604,-7.3414152 0.11282,-10.0013772 -1.93858,-7.774971 -7.88062,-12.544079 -15.65292,-12.563113 -2.3757,-0.0058 -5.68722,0.830019 -7.33595,1.851616 -0.70089,0.434293 -1.30588,0.789623 -1.34443,0.789623 -0.0385,0 -2.12961,-2.148509 -4.64683,-4.774465 -5.31614,-5.545791 -5.26909,-4.72209 -0.4073,-7.13053 4.41246,-2.185852 7.35822,-2.92523 12.3789,-3.107075 6.43217,-0.232969 10.8843,0.639399 15.76634,3.089317 13.33484,6.691738 19.11214,23.434543 13.29309,38.52383172 -1.37739,3.57168928 -3.22743,6.28540258 -6.48643,9.51454418 -3.16797,3.1389541 -5.54053,4.7342631 -9.24965,6.2194661 -5.03188,2.014861 -10.16517,2.693719 -15.64718,2.069278 z m 163.47544,0.02945 c -3.25266,-0.315257 -5.50151,-0.950216 -8.53087,-2.40867 -4.54073,-2.186092 -7.27725,-5.3794093 -8.80529,-10.2751498 -0.52642,-1.6865912 -0.61673,-2.5203856 -0.60183,-5.55624975 0.0154,-3.13367605 0.10429,-3.83409335 0.72477,-5.70928755 0.91678,-2.7706569 2.29439,-4.8683199 4.5593,-6.9423769 2.18801,-2.003639 4.65781,-3.255641 8.24412,-4.179154 3.08622,-0.794732 9.29381,-1.163751 19.13032,-1.137228 l 6.21771,0.01677 0.0822,-0.665418 c 0.14801,-1.19884 -0.42537,-4.388712 -1.00356,-5.5831 -1.31023,-2.706579 -3.65093,-4.250335 -7.6642,-5.054751 -3.03918,-0.609171 -10.08696,-0.399854 -13.90397,0.412944 -3.29934,0.702564 -6.97355,1.916551 -8.81236,2.911675 -0.93687,0.507014 -1.43767,0.655555 -1.50514,0.446441 -0.59004,-1.828644 -3.04396,-10.272632 -3.04396,-10.47432 0,-0.559516 6.59236,-2.98888 10.71562,-3.948835 5.53648,-1.288972 13.37788,-1.737719 18.78542,-1.075051 11.68271,1.431661 18.31316,7.919747 19.70193,19.278923 0.16488,1.348572 0.27411,9.546272 0.27411,20.5713532 V 16.312606 h -6.61458 -6.61459 v -2.672382 -2.672382 l -1.48294,1.355331 c -2.73456,2.499233 -7.96282,4.511075 -13.0906,5.037285 -2.94499,0.302213 -3.59031,0.301669 -6.76156,-0.0057 z m 11.76088,-10.8605581 c 4.0302,-1.0149739 6.85488,-3.1385522 8.33746,-6.26807319 0.81411,-1.71847671 0.84261,-1.89954531 0.92854,-5.89887231 l 0.0886,-4.1259758 -6.57094,-0.1491747 c -11.42385,-0.2593459 -14.30583,0.221639 -16.8935,2.819421 -1.00642,1.0103525 -1.46448,1.7364876 -1.82721,2.8965783 -0.99075,3.168625 -0.0877,6.9979121 2.08341,8.8346694 2.95221,2.4975393 8.46062,3.2496011 13.85359,1.8914273 z m -68.21327,-18.8888859 v -28.70729 h 5.12056 c 2.81631,0 5.84912,-0.07615 6.73959,-0.169222 l 1.61903,-0.169222 0.0734,3.902449 0.0734,3.902449 1.03556,-1.285831 c 2.15094,-2.670763 5.51522,-4.899966 9.28319,-6.151124 2.68347,-0.891049 7.3647,-1.518234 9.23666,-1.237516 l 1.21438,0.182107 v 6.564455 6.564455 l -3.63802,0.140846 c -4.21201,0.163068 -6.16606,0.603168 -9.29276,2.092955 -3.81793,1.81914 -6.67191,5.239851 -7.46773,8.950619 -0.19373,0.903331 -0.30622,6.91382 -0.33212,17.74617657 l -0.0392,16.38019943 -6.81302,3.92e-4 -6.81302,3.92e-4 z m 103.20159,1.256771 0.0141,-27.45052 7.40137,7.540625 c 5.88091,5.99156 7.37138,7.649331 7.25538,8.069791 -0.94246,3.416114 -0.92662,3.051085 -0.92662,21.3545461 V 16.312606 h -6.87916 -6.87917 z m 39.40422,10.18645762 c -0.005,-18.93695162 -0.041,-19.45144462 -1.57687,-22.57939762 -0.96173,-1.958633 -3.17087,-4.126068 -5.09856,-5.002321 -3.97314,-1.806028 -10.11761,-1.429666 -13.53032,0.828762 l -1.02873,0.680781 -5.80228,-5.782401 c -3.19126,-3.18032 -6.28168,-6.347947 -6.8676,-7.039171 l -1.06532,-1.256771 h 4.39027 4.39026 l 0.0313,1.918229 c 0.037,2.267548 0.29504,3.720514 0.54751,3.083 0.51573,-1.302292 6.19211,-4.582402 9.34306,-5.398913 5.86759,-1.520479 13.12393,-0.917515 17.94633,1.49125 5.50774,2.751088 9.23644,7.562483 10.8791,14.038032 0.99504,3.922574 1.20253,8.417601 1.2037,26.0772539 l 0.001,16.2057281 h -6.87917 -6.87916 z m 21.97066,12.69999938 0.006,-4.5640623 7.67678,-9.3927078 c 4.22224,-5.1659894 9.2699,-11.3572389 11.21703,-13.7583329 1.94713,-2.401093 5.15754,-6.35578 7.13423,-8.788191 1.9767,-2.432412 3.59399,-4.545771 3.59399,-4.696354 0,-0.185312 -4.65982,-0.273787 -14.41979,-0.273787 h -14.41979 v -5.402319 c 0,-2.971275 -0.0723,-5.59065 -0.1606,-5.820833 -0.1457,-0.379689 2.0132,-0.418514 23.27154,-0.418514 h 23.43213 l 0.0779,4.663846 0.0779,4.663846 -4.24374,5.191883 c -2.33406,2.855535 -7.35185,9.061413 -11.15066,13.79084 -3.7988,4.7294266 -8.56519,10.62302 -10.59196,13.09687407 l -3.68505,4.49791643 15.56331,0.068244 15.56331,0.068244 v 5.8187345 5.818735 h -24.47396 -24.47396 z m -227.5473,-36.269963 v -36.424304 h 17.69401 c 9.7317,0 18.07397,-0.07599 18.53837,-0.168873 l 0.84436,-0.168873 -3.12199,6.250706 -3.12198,6.250705 -8.47108,0.06973 -8.47107,0.06973 -0.0694,9.723437 -0.0694,9.723437 h 3.5972 3.5972 l -2.97538,5.754687 c -1.63646,3.165078 -6.30201,12.362656 -10.36789,20.4390619 -4.06588,8.0764058 -7.43985,14.7339831 -7.49772,14.7946171 -0.0579,0.06063 -0.10522,-16.2806934 -0.10522,-36.31406 z m 22.97189,1.411111 3.08422,-6.085417 h 13.56257 13.56256 v 6.085417 6.085416 h -16.64679 -16.64679 z m 13.05554,-25.893425 c 0.0485,-0.125864 1.39786,-2.923833 2.99856,-6.217708 l 2.91038,-5.988865 h 7.34223 7.34223 v 6.217708 6.217708 h -10.3408 c -5.70879,0 -10.30129,-0.102507 -10.2526,-0.228843 z"
         id="path9" /><path
         style="fill:#333333;fill-opacity:1"
         d="m -634.81784,39.32331 c -5.04743,-0.576415 -8.89412,-1.694366 -12.9424,-3.761413 -3.32987,-1.700224 -5.19693,-3.115428 -7.84706,-5.94795 l -2.13208,-2.278818 0.99021,-0.814908 c 0.54462,-0.448199 2.53969,-2.15436 4.43349,-3.791469 1.8938,-1.63711 3.5046,-2.968318 3.57955,-2.958241 0.075,0.01008 0.69124,0.707035 1.36951,1.548795 2.52484,3.133408 6.81226,5.604733 11.29716,6.511838 3.32515,0.672535 8.47788,0.436905 11.14982,-0.509872 3.7439,-1.326617 6.54881,-3.72727 8.07084,-6.907624 1.24109,-2.593301 1.71874,-5.235843 1.71874,-9.508559 V 7.3273457 l -1.91822,1.9261044 c -3.25297,3.2663169 -6.39544,4.9433049 -11.01598,5.8786939 -3.29509,0.667065 -9.28762,0.432274 -12.84378,-0.503227 -9.78205,-2.573312 -16.75361,-10.0922844 -19.01673,-20.5099259 -0.82401,-3.7931429 -0.80428,-10.4952271 0.0422,-14.3188831 1.62557,-7.343175 5.55171,-13.409354 11.11901,-17.179699 10.17234,-6.889017 25.04266,-6.062545 32.38736,1.800044 0.69705,0.746207 1.32213,1.356739 1.38906,1.356739 0.0669,0 0.12169,-1.547812 0.12169,-3.439583 v -3.439583 h 6.58828 6.58829 l 0.0242,21.497395 c 0.0262,23.2605615 -0.24488,34.850436 -0.88926,38.026294 -1.2547,6.183856 -4.39016,11.650272 -8.65111,15.082482 -3.10188,2.498578 -8.04382,4.59004 -12.78851,5.412185 -3.02564,0.524275 -8.11972,0.715782 -10.82424,0.406928 z m 8.18897,-35.5841315 c 5.45009,-1.3914149 9.63011,-5.6702027 11.10887,-11.3713627 0.6526,-2.5159878 0.782,-6.5026858 0.30059,-9.2604158 -1.09225,-6.256846 -5.40578,-11.121005 -11.28773,-12.728613 -2.73691,-0.748031 -7.22798,-0.637129 -9.92621,0.245117 -5.09559,1.666117 -8.88442,5.892792 -10.36018,11.557454 -0.6038,2.317665 -0.6045,7.202873 -10e-4,9.5249995 1.53814,5.9218678 5.69248,10.3669944 11.15962,11.9407451 2.07386,0.5969729 6.83796,0.6456782 9.00639,0.092076 z m 57.97427,13.2235285 c -6.17564,-1.158181 -11.55447,-4.056197 -15.82522,-8.5263398 -2.38561,-2.4969868 -3.26986,-3.7538985 -4.83003,-6.8656019 -2.35069,-4.6883537 -3.22659,-9.2067925 -2.98928,-15.4206573 0.19021,-4.980795 0.93797,-7.96858 3.07914,-12.303125 1.37395,-2.781388 4.19524,-6.879166 4.73627,-6.879166 0.10399,0 2.24589,2.114005 4.75978,4.697788 l 4.57071,4.697787 -0.65995,0.865235 c -1.05071,1.377555 -2.25143,4.176219 -2.70313,6.300535 -0.57731,2.715079 -0.37296,7.6227758 0.42313,10.1615704 2.22509,7.09601848 8.10384,11.5001861 15.35062,11.5001861 6.69347,0 12.12498,-3.6953814 14.68245,-9.9893592 2.84055,-6.9906393 1.29002,-15.6645063 -3.67557,-20.5615713 -3.02882,-2.987021 -6.48983,-4.357058 -11.00688,-4.357058 -2.81525,0 -5.22852,0.557848 -7.27604,1.681917 l -1.5875,0.871522 -4.60135,-4.729928 c -5.26737,-5.414572 -5.11627,-4.669926 -1.35177,-6.661635 4.46878,-2.364333 9.56505,-3.603427 14.81666,-3.60249 12.0229,0.0021 21.51235,5.63217 26.53003,15.740084 2.4906,5.017205 3.21977,8.64305 3.0329,15.081249 -0.1595,5.4954281 -0.81669,8.3185859 -2.95638,12.6999997 -2.9612,6.0635961 -7.3048,10.3235013 -13.53614,13.2753183 -4.10154,1.942916 -6.82809,2.526414 -12.27666,2.62728 -3.28273,0.06077 -5.23424,-0.02756 -6.70579,-0.30354 z m 163.00411,0.0049 c -5.52583,-1.041041 -10.09214,-3.85777 -12.75454,-7.8676421 -1.90068,-2.8626214 -2.99701,-7.5119936 -2.66651,-11.308172 0.70662,-8.1161889 5.27302,-13.2654479 13.77168,-15.5295199 2.63146,-0.701028 2.7073,-0.705439 13.95677,-0.811794 l 11.31094,-0.106935 -0.004,-1.499313 c -0.009,-3.08361 -1.17313,-6.085771 -2.93643,-7.569489 -2.38278,-2.004982 -5.58715,-2.837488 -10.95006,-2.844865 -6.12297,-0.0084 -12.04343,1.153097 -16.48375,3.233903 -1.24565,0.58373 -2.34278,0.969692 -2.43806,0.857692 -0.27522,-0.323483 -3.22479,-10.424396 -3.08489,-10.564296 0.40541,-0.405413 6.50564,-2.623825 9.00301,-3.274037 4.5212,-1.177138 7.55122,-1.599471 12.60681,-1.757179 7.59363,-0.236882 13.5722,0.869308 17.72708,3.279972 0.94589,0.548802 2.68625,1.950678 3.86747,3.11528 1.85198,1.825926 2.33159,2.49995 3.48353,4.895582 2.58619,5.378382 2.6983,6.583626 2.701,29.0380197 l 0.002,18.0578113 h -6.61458 -6.61459 v -2.670352 -2.670352 l -1.37413,1.235462 c -1.66424,1.496294 -5.89265,3.597912 -8.81233,4.37993 -2.80904,0.752386 -10.57661,0.968059 -13.69646,0.380294 z m 11.86598,-9.935146 c 4.3345,-0.6028733 7.98153,-2.4798673 9.83274,-5.0605611 1.57948,-2.2018864 1.91962,-3.6446011 1.91962,-8.1422469 v -3.97536 h -7.48142 c -4.11478,0 -8.49033,0.124353 -9.72344,0.2763406 -5.46355,0.673411 -8.45972,3.6547048 -8.45972,8.4177019 0,2.28299529 0.5661,3.9374142 1.84406,5.3892599 2.39458,2.7203807 6.743,3.835528 12.06816,3.0948656 z m -65.77055,-19.427126 v -28.70729 h 6.74687 6.74688 v 3.704166 c 0,2.293056 0.10079,3.704167 0.26458,3.704167 0.14552,0 0.26458,-0.109468 0.26458,-0.243261 0,-0.542014 2.81303,-3.269867 4.61445,-4.47473 3.86034,-2.581952 7.85564,-3.748675 12.8369,-3.748675 h 2.92157 v 6.614583 6.614583 h -2.88714 c -9.91893,0 -16.88374,4.879068 -17.75248,12.436167 -0.14215,1.236514 -0.25935,9.1240658 -0.26046,17.5278935 l -0.002,15.2796865 h -6.74688 -6.74687 z m 103.19076,1.256771 0.003,-27.45052 7.07434,7.250882 c 3.89088,3.987984 7.22187,7.459092 7.40221,7.713572 0.26449,0.373245 0.24917,0.651066 -0.0793,1.437122 -0.71949,1.721999 -0.89206,6.016499 -0.90116,22.42602656 l -0.009,16.07343644 h -6.74687 -6.74688 z m 39.68197,12.1708325 c -0.003,-19.2351755 -0.18224,-21.4141915 -2.06702,-25.1086765 -1.30195,-2.552034 -4.38973,-4.72059 -7.70013,-5.407827 -3.46756,-0.719863 -8.2421,0.06788 -10.75747,1.774856 l -0.98743,0.670086 -0.83858,-0.880104 c -0.46122,-0.484057 -3.55816,-3.648307 -6.88209,-7.031666 l -6.04352,-6.151562 h 4.41008 4.41009 v 2.645833 c 0,1.455208 0.0726,2.645833 0.16134,2.645833 0.0887,0 0.78584,-0.565547 1.54912,-1.25677 3.84156,-3.478895 9.02306,-5.21129 15.48745,-5.178112 6.91324,0.03548 12.46693,2.307529 16.55457,6.772567 2.083,2.275325 3.39486,4.55166 4.36701,7.577628 1.54456,4.80771 1.61376,5.825144 1.76051,25.8852063 l 0.13404,18.3223947 h -6.77786 -6.77785 z m 21.69809,10.7672925 V 7.287818 l 3.49411,-4.2850013 c 1.92176,-2.35675065 5.05376,-6.1900011 6.96001,-8.5183343 3.00598,-3.6715789 13.27616,-16.2903074 17.90777,-22.0028454 0.84481,-1.041982 1.53603,-1.964716 1.53603,-2.05052 0,-0.08581 -6.54844,-0.156008 -14.55209,-0.156008 h -14.55208 v -5.820833 -5.820833 h 23.28333 23.28334 v 4.711019 4.71102 l -1.40533,1.705126 c -3.2719,3.96991 -8.04584,9.861983 -13.81523,17.050958 -3.38677,4.220104 -8.01179,9.9351037 -10.27782,12.69999943 -2.26603,2.76489567 -4.12342,5.08661427 -4.12753,5.15937477 -0.004,0.07276 6.98746,0.1322916 15.53682,0.1322916 h 15.54429 l 0.0713,5.7546872 0.0713,5.754687 h -24.47912 -24.47912 z m -227.50517,-29.55309 c -0.0527,-16.116222 -0.009,-32.427611 0.0961,-36.247533 l 0.19194,-6.945312 h 18.24831 c 11.62771,0 18.21631,0.09277 18.16011,0.255707 -0.0485,0.140639 -1.39788,2.874642 -2.99861,6.075561 l -2.91042,5.819852 -8.53603,0.0099 -8.53603,0.0099 0.0694,9.855728 0.0694,9.855729 3.37344,-0.0027 c 1.85539,-0.0015 3.37344,0.0463 3.37344,0.106217 0,0.05991 -2.09874,4.228324 -4.66386,9.263133 -2.56511,5.03481 -7.14586,14.1250584 -10.17942,20.20055288 -3.03357,6.07549452 -5.54851,11.04618212 -5.58876,11.04597112 -0.0402,-2.1e-4 -0.11629,-13.1863808 -0.16898,-29.302602 z m 20.07185,0.593394 c 0,-0.523736 5.87948,-11.737547 6.22324,-11.869461 0.55599,-0.213355 5.80806,-0.21072 17.52311,0.0088 l 9.32656,0.174756 v 5.910253 5.910254 h -16.53645 c -9.09506,0 -16.53646,-0.06057 -16.53646,-0.134592 z m 15.875,-31.749903 c 0,-0.07397 1.36971,-2.871941 3.04381,-6.217708 l 3.04381,-6.083211 h 7.12703 c 3.91987,0 7.16383,0.0893 7.20879,0.198437 0.045,0.109141 0.0477,2.907109 0.006,6.217708 l -0.0758,6.019271 h -10.17679 c -5.59724,0 -10.1768,-0.06052 -10.1768,-0.134497 z"
         id="path8" /></g></g></svg>
